<?xml version="1.0" encoding="UTF-8" standalone="no"?>
<!-- Created with Inkscape (http://www.inkscape.org/) -->

<svg
   xmlns:dc="http://purl.org/dc/elements/1.1/"
   xmlns:cc="http://creativecommons.org/ns#"
   xmlns:rdf="http://www.w3.org/1999/02/22-rdf-syntax-ns#"
   xmlns:svg="http://www.w3.org/2000/svg"
   xmlns="http://www.w3.org/2000/svg"
   version="1.1"
   width="386.25"
   height="286.25"
   viewBox="0 0 386.25 286.25"
   id="svg3390">
  <metadata
     id="metadata3396">
    <rdf:RDF>
      <cc:Work
         rdf:about="">
        <dc:format>image/svg+xml</dc:format>
        <dc:type
           rdf:resource="http://purl.org/dc/dcmitype/StillImage" />
        <dc:title></dc:title>
      </cc:Work>
    </rdf:RDF>
  </metadata>
  <defs
     id="defs3394">
    <filter
       x="0"
       y="0"
       width="1"
       height="1"
       color-interpolation-filters="sRGB"
       id="filter3105">
      <feColorMatrix
         values="0"
         type="saturate"
         id="feColorMatrix3107" />
    </filter>
    <filter
       x="0"
       y="0"
       width="1"
       height="1"
       color-interpolation-filters="sRGB"
       id="filter3109">
      <feColorMatrix
         values="0"
         type="saturate"
         id="feColorMatrix3111" />
    </filter>
    <filter
       x="0"
       y="0"
       width="1"
       height="1"
       color-interpolation-filters="sRGB"
       id="filter3113">
      <feColorMatrix
         values="0"
         type="saturate"
         id="feColorMatrix3115" />
    </filter>
    <filter
       x="0"
       y="0"
       width="1"
       height="1"
       color-interpolation-filters="sRGB"
       id="filter3117">
      <feColorMatrix
         values="0"
         type="saturate"
         id="feColorMatrix3119" />
    </filter>
    <filter
       x="0"
       y="0"
       width="1"
       height="1"
       color-interpolation-filters="sRGB"
       id="filter3121">
      <feColorMatrix
         values="0"
         type="saturate"
         id="feColorMatrix3123" />
    </filter>
  </defs>
  <g
     transform="translate(1.587534,-3.2997125)"
     id="g3400"
     style="filter:url(#filter3105)">
    <path
       d="M 144.375,271.79472 C 81.922,263.31272 35.199506,239.5939 25.111074,211.25 c -1.168412,-3.2827 -1.525748,-19.51114 -1.431247,-65 l 0.125947,-60.625 3.671191,-7.5 c 11.417164,-23.324503 47.2085,-42.896439 95.712945,-52.339141 26.06831,-5.074902 41.0565,-6.138813 77.09254,-5.472284 28.18154,0.521249 35.44375,1.072742 51.17117,3.885947 28.98172,5.184034 51.34204,12.650269 73.54638,24.557547 9.5159,5.102988 27.21481,22.017838 30.50378,29.152451 2.01301,4.366764 2.21257,10.379947 2.28547,68.86854 l 0.0799,64.08401 -2.99496,5.99682 c -12.76483,25.55912 -59.51688,47.38442 -117.75069,54.96966 -18.80156,2.44899 -74.61735,2.42864 -92.74847,-0.0339 z M 290.3125,144.4924 c 3.95312,-1.76598 7.18572,-3.63984 7.18354,-4.16414 -0.002,-0.5243 -10.63132,-6.4503 -23.6203,-13.16891 -12.98899,-6.7186 -24.27353,-13.0075 -25.07675,-13.97532 -1.77387,-2.13739 0.70882,-3.75941 7.78652,-5.08719 2.56547,-0.48129 4.66449,-1.38594 4.66449,-2.01033 0,-0.65582 -11.45367,-0.993 -27.12093,-0.79839 l -27.12092,0.33688 -5.35569,10 c -2.94562,5.5 -5.36621,10.39759 -5.37907,10.88352 -0.0129,0.48594 5.39308,-1.07716 12.01321,-3.47354 l 12.0366,-4.35708 8.2759,4.30774 c 4.55175,2.36926 16.99465,9.15527 27.6509,15.08002 21.54038,11.97621 21.61049,11.98944 34.0625,6.42674 z m -139.75,1.9123 c -0.65313,-0.60241 -4.98438,-2.33578 -9.625,-3.85191 -6.35008,-2.07464 -8.4375,-3.32413 -8.4375,-5.05054 0,-1.26165 1.27925,-2.76266 2.84277,-3.33559 1.56352,-0.57291 12.95414,-6.34878 25.31251,-12.83526 l 22.46972,-11.7936 -8.75,-4.09542 c -4.8125,-2.25248 -10.08786,-4.11724 -11.72304,-4.1439 -1.63516,-0.0267 -15.24815,6.75156 -30.25106,15.06273 l -27.27805,15.1112 -12.139651,-4.49131 c -6.67681,-2.47022 -12.358097,-4.27287 -12.625083,-4.00588 -0.266986,0.26698 2.201414,5.89428 5.485334,12.5051 l 5.970762,12.01968 29.967898,0 c 17.22695,0 29.46301,-0.46568 28.78039,-1.0953 z m 100.29972,-72.83652 28.36159,-15.18182 5.7006,2.172641 c 3.13533,1.194952 8.07109,3.078144 10.96838,4.18487 2.89727,1.106728 5.56497,1.71503 5.92822,1.351785 0.36324,-0.363245 -1.72941,-5.117742 -4.65034,-10.565551 L 291.85989,45.625 263.7803,45.287852 c -27.29429,-0.327718 -33.06651,0.558495 -20.04019,3.076779 10.45338,2.020871 8.46778,4.0705 -16.73714,17.276863 -12.72473,6.667252 -24.06646,12.802736 -25.20383,13.634406 -1.77405,1.297212 -0.76083,2.070306 7.12895,5.439426 5.0583,2.160014 10.18143,3.951458 11.38473,3.980985 1.2033,0.02953 14.95053,-6.77813 30.5494,-15.128131 z m -73.91553,12.975179 c 1.87973,-1.306114 12.12285,-20.390491 11.35582,-21.157516 -0.35027,-0.350277 -5.57617,0.827838 -11.61311,2.618033 l -10.97624,3.2549 -29.21406,-14.318785 -29.21406,-14.318783 -6.24029,2.459695 c -3.432164,1.352832 -8.257689,3.494678 -10.723393,4.75966 l -4.483095,2.299966 23.018368,11.977501 c 12.6601,6.587626 24.03036,12.364285 25.26723,12.83702 3.9069,1.493219 1.76935,4.826341 -4.35762,6.79495 -3.2096,1.03125 -6.25127,2.296875 -6.75927,2.8125 -1.19509,1.213024 52.19367,1.194078 53.93972,-0.01914 z"
       id="path3414"
       style="fill:#9ed7ef" />
    <path
       d="m 163.75,271.76529 c -2.40625,-0.27714 -9.71875,-1.1146 -16.25,-1.86102 -37.83072,-4.32346 -73.998359,-16.03586 -96.25,-31.16927 -8.599949,-5.84886 -18.807865,-16.57551 -22.67446,-23.82671 -2.934597,-5.50339 -2.952527,-5.79564 -3.31847,-54.08843 -0.239626,-31.6229 0.07546,-49.08938 0.903544,-50.08716 0.864908,-1.04215 0.812932,-3.99772 -0.162548,-9.2431 -7.327012,-39.399 52.206448,-72.91578 140.512344,-79.10713 85.98075,-6.02833 169.00955,19.334306 187.355,57.230947 3.10916,6.422679 3.45856,14.817047 1.09134,26.219893 -0.90763,4.37206 -0.94794,7.31464 -0.12138,8.85914 0.73712,1.37731 1.35353,20.99187 1.5241,48.4976 0.28417,45.82439 0.26427,46.22815 -2.54958,51.71824 -13.24037,25.83318 -58.57425,47.19291 -116.93492,55.09558 -10.10658,1.36856 -65.04602,2.69192 -73.125,1.76142 z m 31.5625,-102.64745 c -1.54688,-0.29795 -4.07813,-0.29795 -5.625,0 -1.54688,0.29793 -0.28125,0.54171 2.8125,0.54171 3.09375,0 4.35937,-0.24378 2.8125,-0.54171 z m -20.59196,-1.27645 c -2.55995,-0.2686 -7.05995,-0.27232 -10,-0.009 -2.94005,0.26406 -0.84554,0.48382 4.65446,0.48836 5.5,0.005 7.90549,-0.21151 5.34554,-0.4801 z m 53.40446,-0.27857 c 3.77526,-0.58481 -0.1843,-0.72009 -10,-0.34167 -8.9375,0.34458 -16.48438,0.82953 -16.77084,1.07768 -0.9605,0.83205 20.44779,0.24347 26.77084,-0.736 z m -82.5,-2.0737 c -6.875,-0.94388 -13.0625,-1.51517 -13.75,-1.26952 -0.6875,0.24565 2.125,0.84602 6.25,1.33416 4.125,0.48815 8.0625,1.08134 8.75,1.3182 0.6875,0.23686 3.5,0.40876 6.25,0.382 2.75,-0.0267 -0.625,-0.82093 -7.5,-1.76484 z m 96.57707,-0.098 c -1.19511,-0.31287 -3.44511,-0.32422 -5,-0.0252 -1.55488,0.29898 -0.57707,0.55497 2.17293,0.56885 2.75,0.0139 4.02219,-0.23077 2.82707,-0.54363 z m 8.13422,-1.21108 c -0.84629,-0.3424 -2.53379,-0.36324 -3.75,-0.0464 -1.21621,0.31693 -0.52379,0.59708 1.53871,0.62255 2.0625,0.0255 3.05758,-0.23382 2.21129,-0.57623 z M 123.125,161.80145 c -4.125,-0.9308 -8.34375,-1.65009 -9.375,-1.59841 -2.93201,0.14691 10.24349,3.30796 13.75,3.29887 1.71875,-0.005 -0.25,-0.76965 -4.375,-1.70046 z m 141.25,0.102 c 8.38045,-2.15413 4.44966,-2.23435 -5,-0.102 -4.125,0.93081 -6.09375,1.69601 -4.375,1.70046 1.71875,0.005 5.9375,-0.71484 9.375,-1.59841 z m -153.46354,-2.65866 c -0.41537,-0.41536 -1.49349,-0.45977 -2.39583,-0.0986 -0.99717,0.39903 -0.70098,0.69523 0.7552,0.7552 1.31771,0.0542 2.05599,-0.24115 1.64063,-0.65652 z m 163.75,0 c -0.41537,-0.41536 -1.4935,-0.45977 -2.39584,-0.0986 -0.99716,0.39903 -0.70097,0.69523 0.75522,0.7552 1.3177,0.0542 2.05598,-0.24115 1.64062,-0.65652 z M 95.663837,154.9748 c -6.166138,-1.97678 -11.422612,-3.38269 -11.681052,-3.12425 -0.619539,0.61954 18.596935,6.79146 21.017215,6.75029 1.03125,-0.0175 -3.17002,-1.64927 -9.336163,-3.62604 z M 281.875,157.5 c 1.5758,-0.67715 1.80685,-1.07429 0.625,-1.07429 -1.03125,0 -3,0.48343 -4.375,1.07429 -1.5758,0.67715 -1.80685,1.07429 -0.625,1.07429 1.03125,0 3,-0.48343 4.375,-1.07429 z m 13.75,-4.32986 c 4.82758,-2.2105 2.58213,-2.24294 -3.125,-0.0451 -2.40625,0.92664 -3.53125,1.70223 -2.5,1.72353 1.03125,0.0212 3.5625,-0.73398 5.625,-1.67839 z M 81.25,150 c -1.03125,-0.66645 -2.4375,-1.21171 -3.125,-1.21171 -0.6875,0 -0.40625,0.54526 0.625,1.21171 1.03125,0.66645 2.4375,1.21171 3.125,1.21171 0.6875,0 0.40625,-0.54526 -0.625,-1.21171 z M 290,146.41634 c 5.84375,-2.57057 10.52781,-5.20647 10.40903,-5.85755 -0.25715,-1.40949 1.67566,-0.31322 -25.40903,-14.41183 -12.03125,-6.26273 -22.6243,-12.10221 -23.54011,-12.97663 -1.36008,-1.29859 0.41462,-2.10373 9.6875,-4.39497 6.24393,-1.54283 11.35261,-3.30468 11.35261,-3.91525 0,-0.61828 -14.3614,-1.11011 -32.41489,-1.11011 l -32.41487,0 -2.38342,3.4375 c -4.08226,5.88767 -12.05856,21.45742 -11.35365,22.16234 0.36899,0.36898 5.9631,-1.29979 12.43135,-3.70839 6.46827,-2.40861 12.73663,-4.38202 13.92972,-4.38537 1.19307,-0.003 12.16182,5.54968 24.375,12.34007 27.02616,15.02622 31.84672,17.55045 33.45576,17.51866 0.6875,-0.0136 6.03125,-2.1279 11.875,-4.69847 z M 303.75,150 c 1.03125,-0.66645 1.3125,-1.21171 0.625,-1.21171 -0.6875,0 -2.09375,0.54526 -3.125,1.21171 -1.03125,0.66645 -1.3125,1.21171 -0.625,1.21171 0.6875,0 2.09375,-0.54526 3.125,-1.21171 z m -230,-3.125 c -1.71875,-0.98252 -3.6875,-1.78641 -4.375,-1.78641 -0.6875,0 0.15625,0.80388 1.875,1.78641 1.71875,0.98252 3.6875,1.78641 4.375,1.78641 0.6875,0 -0.15625,-0.80389 -1.875,-1.78641 z m 84.3125,0.78022 c -0.65313,-0.60212 -5.6875,-2.57967 -11.1875,-4.39453 -11.18246,-3.68994 -14.67234,-5.57702 -12.18164,-6.58698 2.46713,-1.00039 31.26095,-16.00441 40.83819,-21.28015 8.05064,-4.43479 11.64921,-7.89356 8.21262,-7.89356 -0.8053,0 -5.9847,-1.98756 -11.50977,-4.4168 l -10.04561,-4.416793 -28.60613,15.746873 -28.60612,15.74687 -11.892611,-4.45508 C 82.142315,121.60625 77.5,120.43439 77.5,121.77122 c 0,0.28668 2.894294,6.47418 6.431764,13.75 l 6.431762,13.22878 34.443234,0 c 19.77708,0 33.93759,-0.46616 33.25574,-1.09478 z M 313.75,145.625 c 1.71875,-0.98252 2.5625,-1.78641 1.875,-1.78641 -0.6875,0 -2.65625,0.80388 -4.375,1.78641 -1.71875,0.98252 -2.5625,1.78641 -1.875,1.78641 0.6875,0 2.65625,-0.80389 4.375,-1.78641 z m 8.75,-5.08796 c 0,-0.34375 -1.125,-0.0229 -2.5,0.71296 -1.375,0.73587 -2.5,1.61921 -2.5,1.96296 0,0.34375 1.125,0.0229 2.5,-0.71296 1.375,-0.73588 2.5,-1.61921 2.5,-1.96296 z M 249.52867,76.25 c 15.41559,-8.25 29.12588,-15 30.4673,-15 1.34143,0 6.68699,1.6875 11.87903,3.75 10.31591,4.097916 13.13848,4.569266 13.09931,2.1875 C 304.96019,66.328125 302.27204,60.84375 299.00066,55 L 293.0527,44.375 262.48746,44.039621 c -30.34362,-0.332947 -36.3527,0.06169 -32.48746,2.13355 1.03125,0.552777 4.96875,1.683713 8.75,2.513193 10.26821,2.252502 10.64204,2.421603 8.99481,4.068826 -0.78277,0.782779 -12.18797,7.117511 -25.34489,14.077185 -13.1569,6.959672 -23.92783,13.191402 -23.93541,13.848287 -0.0126,1.10002 19.55645,10.491942 21.97315,10.545699 C 221.02213,91.239362 234.11309,84.5 249.52867,76.25 z M 185.5269,76.051828 c 3.49146,-6.640244 6.0582,-12.367648 5.70387,-12.727562 -0.35432,-0.359915 -6.098,0.967035 -12.76371,2.948777 L 166.34759,69.87621 136.83965,55.568647 107.33171,41.261085 96.478354,45.731386 c -5.969345,2.458666 -11.299069,4.898762 -11.843832,5.422435 -1.536767,1.477276 0.600037,2.775268 25.990478,15.787789 13.0625,6.69449 23.92122,12.603721 24.13051,13.131626 0.3392,0.855621 -6.53589,3.217899 -16.32982,5.610919 -9.68265,2.365827 -2.45339,3.08334 27.95201,2.774269 L 179.17881,88.125 185.5269,76.051828 z"
       id="path3412"
       style="fill:#60c7f6" />
    <path
       d="M 165.625,271.75834 C 122.44302,267.42707 95.661684,261.13197 70.495465,249.39762 50.39286,240.02431 35.383401,227.67537 28.57554,214.90829 25.639144,209.40152 25.623241,209.13981 25.258076,160.3125 25.051814,132.73241 25.371331,111.25 25.987805,111.25 c 0.603158,0 3.259465,3.14031 5.902904,6.97847 14.367035,20.86029 53.782949,39.2695 101.234291,47.28149 42.9399,7.25025 100.33559,5.257 139.44555,-4.84269 35.73397,-9.22788 64.56706,-24.33766 76.09926,-39.87927 4.26091,-5.7423 5.6181,-6.70145 6.79286,-4.80064 0.33563,0.54305 0.74404,21.80989 0.9076,47.25966 l 0.29738,46.2723 -3.44191,6.32393 c -13.42765,24.67101 -54.95598,44.57741 -110.44679,52.94214 -16.46052,2.48126 -63.85039,4.30732 -77.15395,2.97295 z m 3.125,-106.25543 c -26.83319,-2.36352 -46.29745,-5.532 -65.02341,-10.58481 -11.842199,-3.19537 -11.359915,-5.03104 1.27341,-4.84686 4.46875,0.0651 18.95313,0.0757 32.1875,0.0236 20.04932,-0.079 24.0625,-0.39461 24.0625,-1.89216 0,-0.98852 -0.98438,-1.73081 -2.1875,-1.64951 -2.45168,0.16564 -21.15541,-5.91494 -24.0625,-7.8227 -1.63175,-1.07084 -1.63949,-1.38195 -0.0596,-2.398 0.99843,-0.64214 2.26722,-0.88824 2.81954,-0.54689 1.10119,0.68058 44.02546,-21.24078 47.55265,-24.28505 2.91802,-2.51857 2.7615,-4.00055 -0.42256,-4.00055 -1.4355,0 -7.13053,-1.98756 -12.6556,-4.4168 l -10.04561,-4.416793 -28.60613,15.746873 -28.60612,15.74687 -11.892611,-4.45508 C 81.810731,121.48204 77.5,120.43026 77.5,121.90275 c 0,0.35901 2.334266,5.28089 5.187257,10.9375 2.852992,5.65661 5.377418,11.86736 5.609836,13.80168 0.374771,3.11903 0.106112,3.42612 -2.374758,2.71432 C 78.359372,147.18632 54.407126,134.3913 47.438514,128.79861 38.50951,121.63262 30.909964,112.16975 28.695596,105.46016 27.809254,102.77451 27.43278,97.17453 27.777481,91.803347 28.262862,84.240081 29.049827,81.626629 32.426362,76.364755 58.926815,35.06738 160.04394,12.677961 250.43868,28.092329 c 50.66673,8.639836 90.24387,28.722347 101.58306,51.545996 3.23412,6.509695 2.77321,23.663775 -0.83616,31.119745 -2.81189,5.8086 -13.14978,16.46787 -21.37764,22.04222 -20.94199,14.18813 -55.13276,25.34889 -92.93294,30.33567 -14.51019,1.91426 -56.64445,3.37819 -68.125,2.36695 z m 121.9669,-17.82852 c 7.81648,-3.38044 11.26514,-5.53295 11.51551,-7.1875 0.25648,-1.69489 -0.44952,-2.40975 -2.5,-2.53137 -3.02842,-0.17961 -45.32732,-21.9679 -48.43777,-24.95043 -1.58747,-1.52218 -1.28979,-1.75509 2.24311,-1.75509 8.04005,0 25.37034,-5.25858 23.49865,-7.13027 -0.28821,-0.2882 -15.90809,-0.4723 -34.71084,-0.4091 -25.11525,0.0844 -34.58433,0.51951 -35.68488,1.63964 -0.82394,0.8386 -4.12968,6.30598 -7.34608,12.14973 -3.21641,5.84375 -6.46659,11.01629 -7.22261,11.49454 -0.75603,0.47823 -0.93321,1.3109 -0.39376,1.85035 0.53945,0.53946 7.30987,-1.21119 15.04537,-3.8903 l 14.06454,-4.87114 27.41844,15.182 c 15.08013,8.3501 28.30353,15.19382 29.38532,15.20827 1.0818,0.0145 6.98805,-2.14525 13.125,-4.79933 z M 250.22651,77.49663 C 265.81985,69.248484 279.19134,62.5 279.94092,62.5 c 0.74961,0 6.48489,2.001459 12.74509,4.447685 11.15169,4.357618 14.83083,4.737795 14.7972,1.529046 -0.009,-0.880952 -2.96235,-6.859299 -6.5625,-13.285215 l -6.54571,-11.683482 -31.25,0.186292 c -17.1875,0.102463 -33.21875,0.615175 -35.625,1.139364 l -4.375,0.953071 5,1.691529 c 2.75,0.930341 8.2496,2.018945 12.22134,2.41912 3.97174,0.400175 7.34673,1.29009 7.5,1.97759 0.15326,0.6875 -8.44009,5.865735 -19.09634,11.50719 -27.07758,14.33496 -31.72166,17.064626 -31.46251,18.49281 0.2459,1.355119 19.64289,10.329994 22.71251,10.50895 1.03125,0.06012 14.63319,-6.639174 30.22651,-14.88732 z M 179.54514,89.043359 C 181.32296,87.893701 193.75,64.737819 193.75,62.574785 c 0,-1.038921 -0.76019,-1.267667 -2.1875,-0.658232 -1.20313,0.513712 -7.36866,2.514791 -13.7012,4.44684 L 166.34759,69.87621 136.83965,55.568647 107.33171,41.261085 96.478354,45.72479 C 81.575425,51.853982 80.874729,52.717795 87.676839,56.575221 104.80832,66.290356 127.72037,77.5 130.44622,77.5 c 3.44624,0 5.67782,2.282765 3.52953,3.610482 -0.7395,0.457035 -6.43657,2.199385 -12.66015,3.871889 C 115.09202,86.654874 110,88.468046 110,89.011643 c 0,1.246191 67.6194,1.277028 69.54514,0.03171 z"
       id="path3410"
       style="fill:#3dbcfa" />
    <path
       d="M 165.625,271.75834 C 122.44302,267.42707 95.661684,261.13197 70.495465,249.39762 50.39286,240.02431 35.383401,227.67537 28.57554,214.90829 25.639144,209.40152 25.623241,209.13981 25.258076,160.3125 25.051814,132.73241 25.371331,111.25 25.987805,111.25 c 0.603158,0 3.259465,3.14031 5.902904,6.97847 14.367035,20.86029 53.782949,39.2695 101.234291,47.28149 42.9399,7.25025 100.33559,5.257 139.44555,-4.84269 35.73397,-9.22788 64.56706,-24.33766 76.09926,-39.87927 4.26091,-5.7423 5.6181,-6.70145 6.79286,-4.80064 0.33563,0.54305 0.74404,21.80989 0.9076,47.25966 l 0.29738,46.2723 -3.44191,6.32393 c -13.42765,24.67101 -54.95598,44.57741 -110.44679,52.94214 -16.46052,2.48126 -63.85039,4.30732 -77.15395,2.97295 z m -19.07976,-128.5955 c -12.68544,-4.40945 -14.17769,-5.2859 -11.65474,-6.84517 1.94029,-1.19916 22.2044,5.24152 24.86632,7.90344 3.39717,3.39716 -1.52908,3.00255 -13.21158,-1.05827 z M 79.289021,132.32856 c -6.000094,-11.96384 -6.73462,-14.16868 -5.223591,-15.6797 1.511029,-1.51103 3.479039,-1.13538 13.995534,2.67143 6.730493,2.43634 13.154536,4.4225 14.275646,4.41369 1.12112,-0.009 13.85089,-6.54375 28.28839,-14.52208 14.4375,-7.97833 27.65625,-14.528292 29.375,-14.555466 3.92926,-0.06213 21.04813,7.302116 24.34027,10.470776 2.30165,2.21529 2.31509,2.37279 0.2025,2.37279 -1.24452,0 -6.7833,-1.98756 -12.30837,-4.4168 l -10.04561,-4.416793 -28.60613,15.746873 -28.60612,15.74687 -11.892611,-4.45508 C 81.817324,121.48451 77.5,120.43036 77.5,121.89998 c 0,0.35748 2.53125,5.68999 5.625,11.85002 6.101185,12.14819 6.224614,12.5 4.385442,12.5 -0.681757,0 -4.381396,-6.26465 -8.221421,-13.92144 z M 287.9325,132.9857 C 251.2043,113.83919 246.94106,111.25 252.14346,111.25 c 3.08851,0 48.1871,23.96192 48.81683,25.9375 0.81943,2.5708 -1.42423,1.84716 -13.02779,-4.2018 z m -98.69305,-6.01319 c -0.88711,-2.31179 11.54909,-25.38759 14.54667,-26.991845 C 205.13184,99.26046 220.05521,98.75 239.76476,98.75 c 26.64986,0 33.9697,0.350118 35.07134,1.67751 0.76571,0.92263 1.02209,2.04763 0.56973,2.5 -0.45238,0.45237 -15.87794,0.82249 -34.27904,0.82249 l -33.45655,0 -2.38342,3.4375 c -1.31088,1.89063 -4.5613,7.51563 -7.22316,12.5 -4.6754,8.75475 -7.39777,11.00226 -8.82421,7.28501 z M 107.89316,86.721584 c -0.39881,-1.039295 -0.18438,-2.430365 0.47652,-3.091266 1.89331,-1.893309 18.82983,-6.333227 22.49917,-5.898168 5.13729,0.609108 4.87199,3.219896 -0.4755,4.679271 -2.62259,0.715729 -8.59486,2.403479 -13.27171,3.750557 -7.45085,2.146076 -8.59311,2.215341 -9.22848,0.559606 z m 86.36459,-7.2014 C 193.84879,78.454443 193.72336,76.9549 193.97905,76.187868 194.81558,73.67826 241.6328,49.90242 245,50.277188 c 1.71875,0.191297 3.125,0.905136 3.125,1.586308 0,0.681173 -6.75,4.82999 -15,9.219594 -8.25,4.389604 -19.78125,10.58228 -25.625,13.761504 -5.84375,3.179224 -11.04658,5.967807 -11.56184,6.196854 -0.51526,0.229046 -1.27145,-0.455523 -1.68041,-1.521264 z M 136.47562,55.509729 107.32625,41.263345 96.475624,45.748009 C 90.50778,48.214575 84.946515,50.791247 84.117256,51.473949 82.148222,53.094989 80,51.70724 80,48.814208 80,47.104955 83.162182,45.175714 92.497216,41.18968 l 12.497214,-5.336276 28.79033,13.948299 c 15.83469,7.671563 29.75781,13.948426 30.94029,13.948582 1.18247,1.56e-4 7.09605,-1.454865 13.14129,-3.23338 8.69457,-2.557959 11.369,-2.920222 12.79872,-1.733651 0.99408,0.825007 1.50521,1.988975 1.13586,2.586594 C 191.24347,62.27183 174.0566,67.913179 167.5,69.346285 166.46875,69.57169 152.50777,63.34524 136.47562,55.509729 z m 85.29422,-11.655563 c -0.28592,-0.286457 -0.51984,-1.552082 -0.51984,-2.8125 0,-2.16772 1.89512,-2.291666 35.03922,-2.291666 30.42812,0 35.13666,0.253843 35.77943,1.92891 0.40711,1.060901 0.53007,2.133723 0.27327,2.384049 -0.66237,0.645653 -69.94213,1.422373 -70.57208,0.791207 z"
       id="path3408"
       style="fill:#53b1dd" />
    <path
       d="M 168.75,270.50291 C 123.85776,266.54871 92.431736,258.89012 66.25,245.52346 43.995291,234.16169 30.842822,221.11731 27.22218,206.81642 c -1.179468,-4.6587 -1.506964,-17.5207 -1.252226,-49.17962 l 0.344952,-42.87103 8.291648,8.95575 c 4.560405,4.92565 11.436426,11.08887 15.280046,13.69603 21.047642,14.27681 52.47994,25.07587 90.1134,30.9599 20.73554,3.24202 81.89819,3.22991 102.5,-0.0203 28.57197,-4.5076 51.44454,-11.0171 70.70682,-20.12309 14.62161,-6.91215 23.05773,-12.63825 32.73068,-22.21623 l 7.8125,-7.73581 0,36.55547 c 0,22.91682 0.52421,38.63731 1.40505,42.13542 1.8984,7.53922 -0.26704,14.95618 -7.06099,24.18512 -16.28649,22.12362 -58.7366,40.05417 -111.21906,46.97793 -14.51019,1.91426 -56.64445,3.37819 -68.125,2.36695 z M 143.4375,141.60516 c -7.873,-2.98657 -10.80854,-5.35516 -6.637,-5.35516 2.42436,0 19.7687,6.22556 21.262,7.63176 2.36752,2.22944 -6.3055,0.87937 -14.625,-2.2766 z m 130.38406,-16.89243 c -11.9919,-6.28491 -21.1778,-11.63565 -20.41312,-11.89054 1.07992,-0.35998 42.96838,20.89575 45.2374,22.9551 0.28645,0.26 -0.27605,0.44792 -1.25,0.41762 -0.97397,-0.0302 -11.58239,-5.19727 -23.57428,-11.48218 z m -181.94656,0.056 c -5.5,-2.07747 -11.6875,-3.87684 -13.75,-3.99858 -2.365024,-0.13961 -3.75,-0.89978 -3.75,-2.05827 0,-2.77267 4.843846,-2.08255 17.5,2.49328 l 11.25,4.06743 27.34266,-15.13632 C 145.50612,101.81134 158.77164,95 159.94656,95 c 2.6192,0 20.90694,7.8535 22.87833,9.82488 2.46608,2.46609 -1.01483,1.68416 -10.81408,-2.42921 l -9.18215,-3.854329 -6.16625,3.124679 c -3.39144,1.71857 -15.89624,8.51551 -27.78845,15.10433 -11.8922,6.58881 -22.83197,11.93375 -24.31058,11.87765 -1.47861,-0.0561 -7.18838,-1.80175 -12.68838,-3.87923 z M 190,125.84174 c 0,-2.0551 10.70955,-22.07695 13.07969,-24.4529 1.40396,-1.407399 8.18668,-1.696654 35.8194,-1.527545 18.74811,0.114738 34.353,0.474135 34.67753,0.798655 1.94477,1.94477 -4.61697,2.50402 -33.31231,2.83921 -19.69,0.22999 -32.63281,0.873 -33.59178,1.66888 -0.85803,0.7121 -3.60968,5.04373 -6.11478,9.62584 C 195.7702,123.55088 192.81709,127.5 191.05626,127.5 190.47532,127.5 190,126.75379 190,125.84174 z M 108.98711,84.881614 c 0.66962,-2.046169 20.24769,-7.94272 22.9407,-6.909313 3.48506,1.33734 1.7825,3.192855 -4.74031,5.166183 -10.13557,3.066285 -18.90835,3.906492 -18.20038,1.74313 z m 85.35405,-6.18637 c -1.42679,-2.30859 1.34716,-4.099656 25.93916,-16.748263 16.43699,-8.454168 24.87698,-12.154092 26.39564,-11.571328 1.22786,0.47118 1.90284,1.390082 1.49993,2.042006 C 247.47791,53.547014 197.28475,80 195.83984,80 c -0.38076,0 -1.05517,-0.58714 -1.49868,-1.304756 z M 145,58.773085 C 134.34375,53.358192 121.55427,47.127584 116.57893,44.927289 l -9.04607,-4.000537 -12.669911,5.258142 C 86.500954,49.655206 81.772236,51.022236 80.955432,50.205432 80.274751,49.524751 80.051599,48.427783 80.459538,47.767724 81.498436,46.086751 101.7883,37.5 104.72142,37.5 c 1.32706,0 15.01075,6.245989 30.4082,13.879976 L 163.125,65.259951 174.67885,62.004976 C 181.03346,60.214739 187.08034,58.75 188.11635,58.75 c 2.28832,0 2.44895,1.733604 0.32115,3.466112 -2.12506,1.730275 -18.05679,6.549703 -21.38168,6.46806 C 165.58137,68.647967 155.65625,64.187979 145,58.773085 z m 78.90235,-16.152471 c -0.94745,-0.600108 -1.33613,-1.716495 -0.86372,-2.48086 1.04676,-1.693695 64.15774,-1.93965 66.80902,-0.260368 0.94745,0.600108 1.33613,1.716495 0.86373,2.48086 -1.04677,1.693695 -64.15776,1.93965 -66.80903,0.260368 z"
       id="path3406"
       style="fill:#2b87b6" />
    <path
       d="m 143.23779,141.53201 c -4.75047,-1.80062 -7.99973,-3.48636 -7.22057,-3.74609 1.38408,-0.46136 15.25969,3.98409 18.98278,6.08168 4.16325,2.34557 -3.34615,0.85446 -11.76221,-2.33559 z M 89.375,124.04013 c -13.740898,-4.91352 -13.861555,-4.97024 -12.809514,-6.02228 0.402685,-0.40269 6.373414,1.36037 13.268289,3.9179 l 12.536135,4.65005 27.52934,-15.1679 c 15.14114,-8.34235 28.59119,-15.1679 29.88901,-15.1679 2.43923,0 21.46174,8.3579 21.46174,9.42963 0,0.33216 -2.10938,-0.29291 -4.6875,-1.38904 -14.50896,-6.168701 -13.23469,-6.002188 -19.93798,-2.60538 -3.3706,1.70802 -15.85835,8.49632 -27.75056,15.08513 -11.8922,6.58881 -22.83197,11.92565 -24.31058,11.85962 -1.47861,-0.066 -8.31338,-2.13145 -15.18838,-4.58983 z m 101.875,0.90542 c 0,-1.82969 9.61779,-19.68687 12.25738,-22.75805 1.69854,-1.97628 4.90903,-2.18565 33.24886,-2.16836 29.11556,0.0178 38.10905,0.82607 32.62133,2.93191 -1.14512,0.43942 -15.46716,0.79895 -31.82675,0.79895 -33.80032,0 -30.01646,-1.27216 -38.07173,12.79997 -4.78012,8.35061 -8.22909,11.86936 -8.22909,8.39558 z M 111.49487,84.890388 c 0.59884,-1.796519 19.53685,-7.672835 21.2719,-6.600509 2.33909,1.44563 0.54659,2.993272 -5.57927,4.817154 -10.65519,3.17242 -16.37222,3.822118 -15.69263,1.783355 z m 83.76383,-7.54147 c 0.7577,-2.27311 49.68074,-27.63963 51.76471,-26.839932 1.03678,0.397847 1.5581,1.252363 1.1585,1.898924 C 247.06976,54.207416 199.2841,78.75 196.89252,78.75 c -1.15547,0 -1.8907,-0.630488 -1.63382,-1.401083 z M 162.79934,67.711454 C 161.2906,66.753675 182.45966,60 186.97051,60 c 4.63888,0 0.31478,3.2905 -7.69285,5.854004 -9.20637,2.947267 -13.92394,3.479034 -16.47832,1.85745 z M 81.94053,48.4375 c 0.336638,-0.859375 5.519841,-3.61762 11.518229,-6.129433 8.425151,-3.528014 11.444641,-4.278743 13.273261,-3.300098 1.99949,1.070096 0.56354,2.021987 -9.246446,6.129432 C 85.451919,50.1759 80.879299,51.146634 81.94053,48.4375 z M 226.5625,42.922149 c -5.71213,-2.304893 1.56191,-2.931868 30.52144,-2.630752 24.31452,0.252818 32.20991,0.711977 32.60416,1.896103 0.40745,1.223759 -6.20943,1.541106 -30.52144,1.463816 -17.07291,-0.05428 -31.74479,-0.382401 -32.60416,-0.729167 z"
       id="path3404"
       style="fill:#307191" />
    <path
       d="m 102.5,127.5 c 0,-0.6875 0.4786,-1.25 1.06355,-1.25 0.58495,0 12.7432,-6.45132 27.01834,-14.33626 27.31766,-15.089051 31.31332,-16.974367 30.44333,-14.364418 -0.65917,1.97751 -53.39132,31.168548 -56.33772,31.186988 -1.20312,0.008 -2.1875,-0.54881 -2.1875,-1.23631 z m 90.04159,-2.63939 c -0.0403,-1.95069 8.57532,-18.56294 11.37987,-21.94222 1.08669,-1.30937 8.07631,-1.66839 32.48159,-1.66839 19.89796,0 31.09695,0.45016 31.09695,1.25 0,0.79929 -11.0339,1.25 -30.6017,1.25 l -30.60169,0 -4.71081,8.86499 c -5.73471,10.79183 -8.98341,15.1905 -9.04421,12.24562 z M 113.75,84.59513 c 0,-0.848955 15.60504,-5.84513 18.25667,-5.84513 3.52323,0 1.60583,2.421679 -2.94417,3.718495 -6.3062,1.797358 -15.3125,3.048174 -15.3125,2.126635 z m 83.1769,-7.011164 c -0.70803,-1.145595 44.10639,-25.327019 48.3856,-26.108405 5.97445,-1.090938 0.0446,2.78269 -22.14235,14.464447 C 209.78872,72.985504 198.57192,78.75 198.24392,78.75 c -0.32801,0 -0.92067,-0.524715 -1.31702,-1.166034 z m -32.4894,-9.948683 c 2.26447,-2.125681 22.38146,-7.566323 23.57257,-6.375207 1.29477,1.294759 1.24367,1.31882 -10.51007,4.948549 -8.54399,2.63851 -15.1184,3.356554 -13.0625,1.426658 z M 84.031991,48.529027 C 84.499988,47.125036 102.65016,38.75 105.22486,38.75 c 3.54228,0 -0.77511,3.154626 -9.52395,6.958962 -10.698851,4.652274 -12.418159,5.067785 -11.668919,2.820065 z M 229.375,42.5 c -1.48988,-0.640223 10.03006,-1.109785 28.51127,-1.162144 20.37773,-0.05773 30.74637,0.34076 30.23873,1.162144 -0.95656,1.547756 -55.14817,1.547756 -58.75,0 z"
       id="path3402"
       style="fill:#415865" />
  </g>
  <path
     d="m 89.776518,136.53345 c -4.137674,-8.22649 -7.866611,-16.43293 -7.591838,-16.7077 0.203365,-0.20336 13.638356,4.39461 19.83766,6.78922 l 4.61886,1.78413 17.25534,-9.54763 c 19.48377,-10.78064 32.63663,-17.66409 37.41108,-19.578816 l 3.23968,-1.299224 4.05172,1.426381 c 4.62767,1.629139 15.39364,6.422029 15.40886,6.859859 0.0109,0.31195 -1.44656,1.07655 -29.79268,15.63003 -10.13954,5.20585 -18.89101,9.96847 -19.4477,10.58361 -1.59972,1.76767 -0.64612,3.46121 2.79666,4.96672 1.65243,0.7226 5.43093,2.19386 8.39667,3.26946 3.20834,1.16358 5.17894,2.16894 4.86556,2.48232 -0.28996,0.28996 -13.24462,0.66854 -28.82261,0.84229 l -28.29592,0.31561 -3.931342,-7.81626 z"
     id="path3473"
     style="fill:#ffffff;filter:url(#filter3109)" />
  <path
     d="m 130.06896,83.590422 -5.24981,-0.37158 5.13738,-2.008706 c 5.23605,-2.047287 8.168,-4.204419 7.86353,-5.785448 -0.0933,-0.484517 -3.32114,-2.472666 -7.17294,-4.418107 -3.85181,-1.945442 -15.08545,-7.727671 -24.96363,-12.8494 l -17.960348,-9.312233 4.256855,-2.127387 c 2.34127,-1.170062 7.068134,-3.262133 10.504143,-4.649046 l 6.24728,-2.521659 12.12705,5.874204 c 6.66988,3.230812 19.87052,9.660773 29.33476,14.288803 l 17.2077,8.414601 8.45803,-2.505966 c 4.65191,-1.378281 9.71723,-2.676709 11.25625,-2.885397 l 2.79822,-0.379431 -1.49817,3.38764 c -2.503,5.659716 -8.67709,16.126005 -10.03929,17.018555 -1.04126,0.682259 -5.20113,0.873837 -22.16948,1.020991 -11.48825,0.09963 -23.25014,0.01394 -26.13753,-0.190434 z"
     id="path3475"
     style="fill:#ffffff;filter:url(#filter3113)" />
  <path
     d="m 215.81584,83.272349 c -7.09402,-2.642272 -11.56607,-4.711661 -12.42892,-5.751335 -0.93599,-1.12779 -1.71181,-0.654535 20.30364,-12.385304 20.31017,-10.822127 25.07493,-13.647256 26.87367,-15.933977 1.2015,-1.527465 1.20216,-1.550289 0.0715,-2.465842 -0.62767,-0.508258 -2.68164,-1.253171 -4.56438,-1.655361 -1.88273,-0.40219 -4.34187,-1.030574 -5.46474,-1.396408 l -2.04159,-0.665153 2.6249,-0.41858 c 3.34991,-0.534192 33.30344,-0.618373 44.1103,-0.123967 l 8.23659,0.376819 2.19639,4.066449 c 3.96712,7.344857 7.27056,14.119108 7.27926,14.927348 0.0131,1.216853 -2.64154,0.516428 -13.00801,-3.432153 l -9.22504,-3.513807 -17.31567,9.278919 c -20.13946,10.792103 -38.85242,20.265676 -40.93981,20.726078 -0.90241,0.19904 -3.4594,-0.423702 -6.70809,-1.633726 z"
     id="path3477"
     style="fill:#ffffff;filter:url(#filter3117)" />
  <path
     d="m 277.22052,144.14952 c -2.85831,-0.70269 -9.53047,-4.08434 -25.53098,-12.93984 -21.84018,-12.08747 -29.94201,-16.18693 -30.91554,-15.64301 -1.4262,0.79681 -22.21807,7.75129 -22.45769,7.51166 -0.23424,-0.23424 3.42099,-7.62527 7.62754,-15.42322 l 2.55121,-4.72933 3.07708,-0.36958 c 4.34304,-0.52162 46.33782,-0.40606 49.15874,0.13527 l 2.33325,0.44776 -3.16826,0.97691 c -1.74255,0.5373 -3.57998,0.98267 -4.08319,0.98972 -2.03539,0.0285 -5.87308,2.26248 -5.87308,3.41882 0,1.76525 3.32417,3.80907 23.33249,14.34566 17.34794,9.1356 25.64876,13.86043 25.31096,14.407 -0.38806,0.6279 -7.41436,4.1949 -11.21074,5.69129 -3.58745,1.41404 -7.39964,1.85749 -10.15179,1.18089 z"
     id="path3479"
     style="fill:#ffffff;filter:url(#filter3121)" />
</svg>
